<svg xmlns="http://www.w3.org/2000/svg" viewBox="0 0 515.44 194.55"><defs><style>.cls-1{fill:#1b5caa;}.cls-1,.cls-2,.cls-5,.cls-6{stroke:#000;}.cls-1,.cls-5,.cls-6{stroke-miterlimit:10;}.cls-2{fill:#0067ff;stroke-linecap:square;stroke-linejoin:round;}.cls-3,.cls-6{fill:#fbcc3b;}.cls-4{fill:#202020;}.cls-5{fill:none;}</style></defs><title>Asset 1</title><g id="Layer_2" data-name="Layer 2"><g id="Layer_1-2" data-name="Layer 1"><path class="cls-1" d="M408.59,105.32S424.35,64,444.05,64,479.5,99.41,479.5,99.41s-11.82-11.82-35.45-11.82a44.32,44.32,0,0,0-35.46,17.73"/><polygon class="cls-2" points="387.06 56.23 432.33 36.35 508.91 48.03 448.69 79.52 387.06 56.23"/><polygon class="cls-3" points="4.79 4.86 4.79 190.02 130.85 190.02 130.85 130.92 56 130.92 48.12 4.86 4.79 4.86"/><path class="cls-4" d="M4.79,2.86c-.32.26-.14.85.75.73l.63-1Z"/><path class="cls-4" d="M10.79,4.7c1.05-.48,2.26-1.33,1.58-2.24-1,1-1.29.56-2.41,1.69-.89.12-1.56-.31-1.41-.68-.31.25-1.38-.22-1.86.41A4.37,4.37,0,0,0,10.85,4C11.18,4.26,10.86,4.52,10.79,4.7Z"/><path class="cls-4" d="M49.85,54.7l.08-.57A1.67,1.67,0,0,0,49.85,54.7Z"/><path class="cls-4" d="M52.67,108.65c-.05-.41-.16-.57-.25-.59C52.51,108.44,52.59,108.75,52.67,108.65Z"/><path class="cls-4" d="M52.15,117.93l0-.55A.68.68,0,0,0,52.15,117.93Z"/><path class="cls-4" d="M49.85,54.7l-.23,1.46C50,56.24,49.82,55.41,49.85,54.7Z"/><path class="cls-4" d="M22.81,2.31a2.31,2.31,0,0,0-.78.26c.25,0,.49-.08.73-.11C22.78,2.41,22.79,2.36,22.81,2.31Z"/><path class="cls-4" d="M47.56,31l0-.43a2.08,2.08,0,0,0-.43-.34Z"/><path class="cls-4" d="M46.26,12.75c0,.42.84.51,1.22.64a1.29,1.29,0,0,1-.63-.86A1.17,1.17,0,0,0,46.26,12.75Z"/><path class="cls-4" d="M26.91,5.72l-.52.12C26.53,5.8,26.75,5.77,26.91,5.72Z"/><path class="cls-4" d="M48.19,44.05a.61.61,0,0,0-.29.19A.44.44,0,0,0,48.19,44.05Z"/><path class="cls-4" d="M.83,26A.38.38,0,0,0,1,26C.9,25.94.84,25.9.83,26Z"/><path class="cls-4" d="M5,4.86l0,.29a2.65,2.65,0,0,0,.48.07Z"/><path class="cls-4" d="M58.91,135h-.13C57.93,135.11,58.41,135.1,58.91,135Z"/><path class="cls-4" d="M106.17,186.53c1.76.75-2.85,1-.21,1.8C105.71,188,108.36,187,106.17,186.53Z"/><path class="cls-4" d="M23.29,2.42c.24,0,.49,0,.74,0A2.47,2.47,0,0,0,23.29,2.42Z"/><path class="cls-4" d="M106,188.33h0l.27.08Z"/><path class="cls-4" d="M98.56,134.53a1.16,1.16,0,0,0-.39-.37C98.18,134.24,98.27,134.35,98.56,134.53Z"/><path class="cls-4" d="M69.59,133.33l.72.11A3.16,3.16,0,0,0,69.59,133.33Z"/><path class="cls-4" d="M113.61,133.34a2,2,0,0,0,1,.06l-.16-.1A1,1,0,0,1,113.61,133.34Z"/><path class="cls-4" d="M127.65,133.33a.55.55,0,0,0-.05-.17l-.29.05Z"/><path class="cls-4" d="M1.24,73.63A2.52,2.52,0,0,1,2,72.91C1.4,73.15,1.18,70.85,1.24,73.63Z"/><path class="cls-4" d="M22.82,2.78a.56.56,0,0,1,.47-.36l-.53,0C22.72,2.59,22.71,2.71,22.82,2.78Z"/><path class="cls-4" d="M114.24,126.68l2.49.13A22.88,22.88,0,0,0,114.24,126.68Z"/><path class="cls-4" d="M1.36,186.53l-.1-1A2.37,2.37,0,0,0,1.36,186.53Z"/><path class="cls-4" d="M124.11,126.68a4.37,4.37,0,0,0,1.4.59.82.82,0,0,0,.29-.22Z"/><path class="cls-4" d="M2,72.9H2Z"/><path class="cls-4" d="M0,56.52c0,2.37,1.09,1.11,1.72,1.61C2,61,.91,59.44.34,60.4c.29,1.77,1.31,3.13,1.27,4.44-.19.1-.25.36-.48.06.88,1.87,0,5.54,1.15,7.72A.67.67,0,0,1,2,72.9a2.18,2.18,0,0,1,1.52-.33c0,1.06.7,2,0,2.37,0-.65-.27-.71-.5-1L3.32,75c-1,1-.36-1.52-1.13-1.52.34,2.17,1.2,4.7.9,6.37-1,.35-.34-3.89-1.25-1.67l.39-2.58c-1.6,2,.11-1.56-1.6.25-.3,3.38.52,3.79.22,7.17.56.76.84-.26,1.4.5,1,4.81-2.56,3.79-1.2,7.32.68.91,2,1.27,1.28,3.78L1.18,93.8c-.11,3.28,1.66,1.88.88,5.31-.45-.61-.38-2.58-.52-2.08-.91,2.22.66,1.57.66,3.28l-1,.36c.16,3.49.89,7.34,1.08,11.21-.3-.22-.62-.88-.93,0C1.84,116.78,1.2,122.32.6,127l.88,1.8c0,.42-.4.77-.57.32-.34,1.84.56.1.9,1,.06,1-.5,1.38-.77.72.75,3.23,1.61,9.21.67,12.62l-.26-.66c-.36,2.65,1.8,3,1,5.46l-.16-.48c-.38,5.77.43,12.13-.9,16.53,1.27.84-.57,5.7,1.2,6.07-.87,3.29-1.19,2.35-1.78,7-.08,1.24,1.1,1.85,1.29,3.38l-.93,0,1,2.07L1,184l.12.72a8.15,8.15,0,0,1,.12.88,2.31,2.31,0,0,1,0-.37c0-.09,0-.15.06-.23a1.46,1.46,0,0,1,.17-.38c.13-.22.28-.36.42-.31a6.1,6.1,0,0,1,.09.87c0,.46,0,1,0,1.44,0,1-.16,2-.3,3a16.08,16.08,0,0,1-.89,4l0,.38,4.77-.37,2.24-.19L9,193.3a8.89,8.89,0,0,0,.91-.1.43.43,0,0,1-.22.24,4.18,4.18,0,0,1-.72.18l-2,.32c2.64-.47,2.78-.23,2.85,0s.16.51,1.46.08c-.35-.21.19-.55.25-.74,1.29.56,4.23.57,6.41.33l-.42.64c3.94.16,8.3-.31,12.71-.3-1.58-.29-1.22-1.4.08-1.5l.51,1c.84-.6-1.35-.36.37-1.1,1.65.11,1.11,1.11.16,1.43l2-.34c.11.29-.36.44-.48.81.82-.6,3.46,1,4.65-.07l.11.29c4.41,0,6.42-.33,10-.38.07-.84,1.48-.65,2.55-1.33a65.82,65.82,0,0,0,8.75.86c2.24-.42.66-.72,1.66-1.22.17.77,3.35.7,1.7,1.25a75.35,75.35,0,0,0,9.71-.78c-.52-.31-1.11-.45-.81-.71.88-.13,2,.32,1.87.69l-.23.08c5.42-1.15,12.52,2.24,16.84.64l-.25.08,4.48-.84c2.06.13-1.23.58.29,1.06,4.83-1.29,7.63.18,11.61-.67,3.08,2.26,10.93-.16,15.09,1.28l-.24-.53c1.07-.52,1.3.31,2.09.43-.11-.42-1.17-.48-.5-.77q1-.08,2.13-.12l1.07,0h1.43c2.45,0,4.92,0,7.48.07.06-2.72.16-5.5.27-8.37.13-1.63.25-3.26.38-4.89.26-3.26.54-6.52.71-9.74.14-3.41-2.76-1.94-1.49-6.24l1,1.22c-1.19-6.89,0-14.08-1-20.82.23.4.53.41.53,1.07.72-1.43,0-5.27-.56-5.29.07-1.05.53-.24.83-.89a4.86,4.86,0,0,0-.21-2.42,8,8,0,0,1-.2-1.13v-.24a2.31,2.31,0,0,1,0-.37,2,2,0,0,1,.18-.64c.06-.12.12,0,.17.33l.07.45,0,.23,0,.11c-.35-1.5.09-8.1-.74-5.88.08-.95.11-1.87.12-2.74-1.71,0-3.41.09-5,.14-.78,0-1.53,0-2.26,0-.36,0-.72,0-1.07-.05a2.08,2.08,0,0,1-.4,0l-.31-.06c-1.31.93-4.33-.45-4.74.86.18-1.35-4.44-1.09-6-.45.53-.41-1.39-.43-.76-1-1.83,0-3.5.28-3.18,1-3.37-1.62-6.77,1.31-8.66-.77-5.42.73-10.44,1.22-15.32,1.54.18-1.35,5.39-.14,5.18-1.56-4.63.56-7.29,1.72-11.88,1.4-1.19-.19.67-.59,1.07-.82-4.62.56-8.94-.12-13.05.61,0-.12.45-.26.87-.36-.81,0-1.88-.2-1.79.41l.79-.17c1.29.9-3.22,1.87-3.37,2.34,1.38-1.76-4.06-.44-1.87-2.67-.54.12-1.21.41-1.09.82-.79-.12-1-.36-.24-.83a7.8,7.8,0,0,0-.88.14,1.43,1.43,0,0,0-.24.16c-.15.1-.27.22-.4.32a1.71,1.71,0,0,1-1.22.36c.24-.3.57-.42.87-.77a5.84,5.84,0,0,1-1.25.67c-.26-.16-.44-.7-.34-1.47.18,0,.4-.2.42.1a4.56,4.56,0,0,0-.13-.62c0-.12-.06-.15-.11-.36l-.13-.64c-.2-.85-.42-1.66-.63-2.49a16.92,16.92,0,0,1-.59-5.46c1.37,1.16.34-1.45,1.44-1.74l-.47-2.23-.49.94c-.1-2-1-3.66-.76-5.38l.55,1.44-.44-3.68-.3,2.12c-.7-2-1.4.3-1.25-2.34.15.52-.11-2,.48-3h0a5.87,5.87,0,0,1-.67-3.41c.33-.4,1.26.23,1.48,0-1-.91-.55-4.6-1.62-5.76a.74.74,0,0,0,1,.24l-.81-.76c.18-.93.29-1.07.77-1,0-2.75-1.36,1-1-2.33.08.25.19.12.34.64.11-3.29-.88-6.29-.7-9.32,1.07-1,.44,2.61,1.33,1.54-.48-4.32-1.91-8.89-1.91-13.1l-.07.79c-1.63-.49.59-3.18-.29-5.25.15.51.92.63.73.5.08-2.89-.75-5.85-1.52-10.17l.44.51c.26-1.71-.07-4.47,0-6.31-.44-.52-.44-1.57-1-.9,2-5.78-1.92-10.67-.3-15.8,0,.6.45,1.41.42.93l-.64-4.24c-.67.39-.39.59-.87,1.52a5.35,5.35,0,0,1-.9-2.75c.58,1.88,1.11-.09,1.44-.94-.2.15-.45-.12-.66,0,1.09-2.3-1.42-.28-.78-3.37l.37.14a13.62,13.62,0,0,1-.77-3.38c.77-.56.45,1.19,1.11,1.22-.15-1.72-1.73-3.3-1-4.91.27.72.34,1.77.61,2.49a5.53,5.53,0,0,0,.65-3.21v.12L51,14.4l-.21.76a4.32,4.32,0,0,1-1.35-3.3A18.1,18.1,0,0,0,49.23,10a6,6,0,0,0-.69-2.09,14.29,14.29,0,0,0,.76,1.26c.16.2.24.18.3,0s.17-1,.63-.94c.18-1.06.35-2.91.63-2.57-.5-1-.29-2.1-.29-3.45a8.72,8.72,0,0,0-3.25.43c0-.3-2.14,0-1.45-.77-1.47.12-1.29.25-.85.39s1.15.31,1,.49A11.07,11.07,0,0,1,44.43,3c-.26,0-.52,0-.79,0L43,3c-.8,0-1.64-.18-2.53-.31A11.57,11.57,0,0,0,34.83,3c-3.42.56-4,1.55-7.23,2-1.07-.47.88-1.07.88-1.07a9.5,9.5,0,0,0-4.65,0c.33-.26,0-.47-.51-.8-1.31.08-.87,1.06-2.6.63A4.67,4.67,0,0,1,22,2.57c-1.54.27-3.06.81-4.65,1.08-.43-.51,1-.78,1.52-1.11-1.79.23-4.64.46-5.19,1.27l1.14.29c-.65,0-.33-.7.15-.84,1.54-.64,2.21.28,2.3.57L16.17,4c1.16,1.71,4.55-.28,6.84-.18l-1,1.25,2.34-1c.5.33.84,1-.29,1.21,1.64.62,1.45-.44,2.86.25.15.1.08.16-.06.21l1.6-.37c-.31.26.26.88-.72.7,2.87.72,4.63-.93,5.71,0l-.24.08c4-.42.39-.92,3.38-2l2,2.26L39,5.49c.41,0,1.23.1,1.08.47,1.53-.63-.26-.4.62-1a9.16,9.16,0,0,0,3.47.3c1.08,0,2,0,1.69.77.5-.35.22-.48,0-.59s-.32-.19.85-.43c-.19.63.07.71.63.62.08.28.25.56.35,1a2.55,2.55,0,0,1,0,1.47c-.82-.18-.47-1.5-1.09.13a.58.58,0,0,1,.57.52,2,2,0,0,1,0,.49l0,.26-.06.34a8,8,0,0,0-.26,2.71c1.09,0,.66,3.28,1.18,5.81-.37-.14-.3,4.85-.54,7.25l-.19-.06c1.13.39,1.08,2.85,1.41,4.62-.66,0-.94-.33-1.29-1.28l.11,1.68a3.38,3.38,0,0,1,.79,2l-.85-.37c.18,2.23,1.25,4.44.88,7.34.78.12,2-2.41,2.69.59-.4.14-1.11.3-1.33-.49A2.71,2.71,0,0,1,50,41l-.77-1.17c-.23,1.33.62.65.62,1.7-.59,0-.37.8-.85.68-.07-.26.19-.93-.07-1.31a6.45,6.45,0,0,1-.71,3.13c.33-.12.8,0,.93.81.18,2.23-.67.81-.89,2.13.45.52.11,2,1,1.95,0,.65-.37.8-.6,1.07.47,1.13.45,5.39,1.31,4l0-.3c0,.06,0,.12.06.19h0c1.11,3.73,0,7.9.6,11.63l-.3,0c.48,2.22.52,5,1.25,6.54,0,.66-.44,1.6-.81,1.34.33,1.7.67,1.87.34,4.37-.62-1.69-.42.63-.49-1.74-.11,2.25-.56,2.78.4,5.12-.81-.77-.85,1.74-.55,2.78l.44-1.59a20.91,20.91,0,0,1,.18,3.29l-1-.51c-.93,4.63,2.58,8.09.77,11.69.77,1.16.33-2.51,1.21-1.48,0,2.11-1.29,4.38-1.25,5-.38,2.91,1.62,2.59,1.43,5.62.33-.41,1.26-.83,1.73,1.39,0,2.11-1.33,2.68-1.7,1.37-.06-.5,0-.75.16-.74-.17-.67-.38-1.55-.71-.69l.37.25c-.3,1.06-.08,3.95-.7,3.3.43,1.57.62.65.73-.54-.34,2.72.25,4.21.08,7,.17-.45.56-.89.58-.45-.18,4.09.79,1.75,1.12,4.49-.45,1.6-1.33-.48-.71,2.27-.26,1.71-.92.41-1.25-.24a6.31,6.31,0,0,1,.33,1.81,6.15,6.15,0,0,1,0,.86l0,.41,0,.66c-.1,1.83-.3,3.65-.28,5.05l-.43-2.36a32.55,32.55,0,0,1,.41,3.91c.19-.67.39-1.31.59-1.92,0,1.45,0,2.63-.24,2.9,0,0,.05.09.08.09.73-.24.7-.52.93-.83s.67-.62,2-.92a13.44,13.44,0,0,0,2.91.06c1.05,0,1.93,0,2.2.5-2.52-.16-2.45.07-2.3.37s.48.65-2.05.73a17.32,17.32,0,0,1,3.53,0c.2.11-.22.2-.63.25.36.06.68.1,1,.13l.75.07a2.14,2.14,0,0,0,.63,0,1.31,1.31,0,0,0,.71-.4c.37-.37.76-.84,2.39-.83-.42.53.75,1,1.28.89-1.31,0-.63-.88.58-1.29,2.08.41,2.27-.31,3.36-.26l-1.25-.2c.42-.53,1.47-.46,2.92-.63.13.42-1.32.29-.8.47,1.61-.94,3.65,1,5.9.34,1,.36.1,1,1,1.24,2.52-.69,2.73.73,5.38.16-.76-.71-.89-.54,1-1.24l-4.36.51,2.8-1c-1.31,0-2.78.45-3.56.33,1.33-.59,1.19-.41.56-1,1.8,1.07,3.57-.63,5.65.1l-.06,1.77c3.13.79,5.56-.91,9.63-.47l-1.31-.3c.54-.71,2.51-.1,3.82-.39-.12.59.7.81,1.27,1.18-.07-.44,3,0,3.34-1.14l1.81.78c3.29.32,3.75-1.69,6.9-1.49-1,.64.49,1.06-1.63,1.52,1.06,0,2,.12,2-.29.62.37,2.92-.8,3.89-.24.44-.26.59-.88,1.77-.83.13.12,0,.29,0,.29,0-.29,1.85-.39.81-1,1.63.92,3.89.89,6.11.82l1.64,0h.79l.38,0,.26,0c.66.06,1.21.24,1.34.63l1.17-.15c.07.45.13,1,.18,1.49l.06.78c0,.27,0,.47,0,.92-.18-.13-.3,0-.24-.4-.55,2.88,1.71,1.77,1.09,5-1,1.68-.52-1.74-.88-.69-2,.45.27,3.95-.87,6.15l-.12-.53c-.66,1.68.74,4.11.6,6.86,0,0-.17-.13-.29,0,1,1.88,1.32,5.44,1.6,8.09-.77-.82-.41-1.2-1.18-.7.11,1.19,1.24-.35,1.46,2-.42.77-.78,2.48-1.61,2.71l0-2.24c-1.07,1.15,0,2.9-.15,4.07l-.47-.15c.15,3.43,1.33,3.48,1.24,7.16l.36-.38c1.17,2-.66,1.68.21,3.69l-1.18.61a65.45,65.45,0,0,1,1.36,7c-.88-1.35-1.32-4.14-1.85-5.86,0,1.32.09,4.47.68,5.16a3.44,3.44,0,0,1-.23-1.72,9.48,9.48,0,0,1,1.05,2.8l.14.69c.05.22.08.45.11.69a12.84,12.84,0,0,1,.07,1.54c-.74-.6-1.06-.38-1.22,0-.75-.16-1.49-.15-2.22-.24-.19,0-.31-.05-.53-.09a7.76,7.76,0,0,1-.91-.17,3,3,0,0,1-1.36-.64c-4.64.85-9.2-.36-14.61-.22,1.92,1.78-1.58,0-1.24,1.88-1.26.12-1.74.09-1.85,0l-3.82-1.1c-.9-.53,1.2-.4,1.08-.81-2.75-.14-1.15-.78-3-1.27.38.66-1,.94-2.53.69l2.22.85c-3.86,1-3.33-1.54-7.22-.57l1.23-.58c-2,.34-7.35,0-9.3,1.46-.35-.21-.82-.71.06-.85-4.76-.22-10.6,1.57-14.3.67l.36-.45c-.88.13-1.54.84-2.65.39,0-.19.35-.45-.06-.48a8.14,8.14,0,0,1-3.53.53l1-.51c-4.64-.58-7.13,1.23-11,1.54,0-1.32-3.64-1.75-5.47-2l.07-.19c-5.41-.16-9.19,1.09-14.2,1.61-3.1-1.43-10.53-.6-15.52-1.4.76.24-.13,1-1,1.16-1.18-.27-3.24.92-3.06-.29l.42,0c-.88-1.19-3.29-.87-5.17-.91l-.31,1.59-.62-.26L9.4,187a3.33,3.33,0,0,0-.4-.28,1.48,1.48,0,0,0-.79-.15,4.71,4.71,0,0,0-.17-.83l-.12-.47,0-.14,0-.35,0-.68c-.08-1.8,0-3.31.71-4.22-.39-1.18-.39-2.65-.78-3.83l.85.06a64.05,64.05,0,0,0,.12-9l.61.83c.05-2.29-2.45-2.89-2.5-5l1.26-.64c0-4,1.1-8.05,0-12a.81.81,0,0,1,.6.83c0-1.89.86-7.29-.88-6.6,1.13,0,.11-4.13-.39-6.29l.84.33c-1.07-1.82-1.36-1.88-1.66-4.43.11-.6.67-.53.46.28.43-2-.8-1.57-.35-4l.53.91c.07-2.07-.22-1.91-.84-3.05-.34-1.3.21-3.92,1-4.23a2.79,2.79,0,0,1-.86-2.63c.28-.17.46.28.55.5.56-3.46-1-5.14-.16-7.52a.62.62,0,0,0,.5-.41c0,2.75-.06,5-.12,4.76.77,0,.9-2.22,2-.45-.58-1.79-1.85-4.83-1.48-7A1,1,0,0,1,8,111l.09.23A3,3,0,0,0,8,109.87a9.48,9.48,0,0,0,.24-1.79c.63-.26.34-2.55.37-3.66-.84.1-.71-1.35-1.4,0,.06-.17.1.21.13,1a2.46,2.46,0,0,0,.09.47l-.07-.07.05,2.75a3.46,3.46,0,0,1-.32-3A19.56,19.56,0,0,1,5.68,104c1.18-1.52,1.81-4.44,2.54-4.84-.47-3.39-.31-8-1.9-10.1-.2-1,.46-1.1.71-1.46.15.56.13,1.22.36,1.52-.41-1.93-.16-5.7-1.27-6.16.5-2.42,1,1.36.84-2l.34.45c1.77-6.55-2.83-10.64-.56-17.9-.13.5-.2.75-.38.85,1-8.27-.94-17,.64-25.22.32-2.32-.38-2.58-.92-4L7,34.63l-1-2.42c-.76-3.43,2.22-5.95.78-10.3l-.61.56c.11-1.56-.36-4.94.34-4.68-.11-.16-.64-.52-.32-1.13l.48,0-.82-3.84c.35-3,1.88.46,2-3.88-.19-1.61-1.38-4.59-1.7-4,0,.65-.3,1.66-.77,1.71L5.05,5.15c-1.39-.27-2.82-1.4-3.8,2.22L2.1,9.9l-.67.81L1.38,8.59c-.63,1.2-.07,2,.32,2.82A1.65,1.65,0,0,0,1,12.47L2.28,15c-.54.3-1.08-1.12-1.38.55.62,1.16,1.22-1.12,1.63.81-.63,1.2-1.15.85-.61,2.27-.36.2-.59-.1-.75-.66.44,1.26.19,3.34.93,4C1.32,23.16,2.3,26.17,1,26a8.51,8.51,0,0,1,1.09,3.38C.49,27.31,2,33.76.28,33.2c1.43,1.57.64,5.66,1.43,8.44-.12-.16-.35-.46-.27-.71a11.09,11.09,0,0,1-.82,3c1.18.2,1.44,2.64,2.17,3.95-1.13,1.91-1.38-1.17-2.47-.56,1-.1,1,3.32,1.74,2.67-.7,1.47-.34,1.26-1.31,2,1.47.25.25,1.36,1.15,2.57-.72,2.12-1.38.55-.93,2.88C.52,58.59,0,56.52,0,56.52Zm2.54,55.36h0l0-1.14Zm0,4.65c0-.56,0-1.27,0-2,.29-.17.59,0,.57.48C3,114.74,2.8,115.84,2.56,116.53Zm5.84-9.84c.12.74-.05,1-.22,1.09,0-.35,0-.76-.1-1.29L8,106.4A1,1,0,0,1,8.4,106.69Z"/><path class="cls-4" d="M7.29,105.37a2.27,2.27,0,0,1-.06-.3c-.07.15-.14.29-.19.43l.27.27Z"/><path class="cls-4" d="M49.94,54v.1a.47.47,0,0,1,.11-.21C50,54,50,54,49.94,54Z"/><polygon class="cls-4" points="0.94 180.78 1.16 180.78 0.97 180.37 0.94 180.78"/><path class="cls-4" d="M51.23,28.28a.73.73,0,0,0,.2-.35C51.37,28,51.3,28.1,51.23,28.28Z"/><path class="cls-4" d="M50.73,17.22l.2-1.58A11.23,11.23,0,0,0,50.73,17.22Z"/><path class="cls-4" d="M50.6,8.43a.69.69,0,0,0-.37-.16v0Z"/><path class="cls-4" d="M69,127.69l.33,0C70.1,127.48,69.58,127.55,69,127.69Z"/><path class="cls-4" d="M55.57,103.63a10.57,10.57,0,0,1,.48,1.26C56.07,104.17,56.05,103.62,55.57,103.63Z"/><path class="cls-4" d="M114,126.67h0Z"/><path class="cls-4" d="M56.15,106.76a4.23,4.23,0,0,0-.1-1.87A6.18,6.18,0,0,0,56.15,106.76Z"/><path class="cls-4" d="M15.22,2.23l-.41,0a.15.15,0,0,1-.05.14Z"/><path class="cls-4" d="M14.76,2.33l-.45.1C14.52,2.43,14.7,2.42,14.76,2.33Z"/><path class="cls-4" d="M13.35,2.64l1-.21C14,2.43,13.57,2.4,13.35,2.64Z"/><path class="cls-4" d="M26.49,2.62l.13-.31A.45.45,0,0,0,26.49,2.62Z"/><path class="cls-4" d="M29.91,2.53c-.81-.07-2-.65-3.18-.46l-.11.24C27.16,1.86,29.14,3.05,29.91,2.53Z"/><path class="cls-4" d="M44,6.31l-.52-.06-.72-.06-1.43-.12c.5.32,1.16.76-.15.84,1.81.48,1.62.3,1.46,0-.09-.14-.17-.31,0-.44a1.14,1.14,0,0,1,.48-.14,2.94,2.94,0,0,1,.44,0Z"/><path class="cls-4" d="M46.51,10c-.23-1.27-.47,0-.65,0C46.21,10.88,46.3,11.11,46.51,10Z"/><path class="cls-4" d="M50.52,74.11,49.75,74C49.93,75.18,50,74,50.52,74.11Z"/><polygon class="cls-4" points="55.25 86.13 55.65 84.94 54.91 84.44 55.25 86.13"/><polygon class="cls-4" points="50.24 93.71 50.1 93.2 50.5 95.16 50.24 93.71"/><path class="cls-4" d="M126.17,134.08a7.65,7.65,0,0,0-.1-1c-.3.09-.62.4-.57.65a.35.35,0,0,0,.25.29.88.88,0,0,0,.27.06A.37.37,0,0,0,126.17,134.08Z"/><path class="cls-4" d="M128.66,173.16a2.61,2.61,0,0,0-.31,2.63A17.89,17.89,0,0,0,128.66,173.16Z"/><path class="cls-4" d="M9.24,186.29a2.42,2.42,0,0,0,.27-.32,2.31,2.31,0,0,1-.43.26Z"/><polygon class="cls-3" points="63.88 8.8 71.76 115.17 119.04 115.17 138.73 67.89 154.49 190.02 213.59 190.02 229.34 4.86 189.95 4.86 182.07 142.74 158.43 4.86 122.98 4.86 103.28 71.83 103.28 4.86 63.88 4.86 63.88 8.8"/><path class="cls-4" d="M61.89,8.8c.25.58.84.25.72-1.35l-1-1.14Z"/><path class="cls-4" d="M70.74,4.7c1.88-.48,4.06-1.33,2.84-2.24-1.87,1-2.32.56-4.33,1.69-1.61.12-2.81-.31-2.54-.68-.47.21-1.88-.08-2.83.17L62.45,4l.22.84a1.37,1.37,0,0,0,.23.52,5.3,5.3,0,0,0,.17-.52l.26-1,.55.16a13.93,13.93,0,0,0,7,0C71.45,4.26,70.87,4.52,70.74,4.7Z"/><path class="cls-4" d="M120.8,17.2l-.4.93A6,6,0,0,0,120.8,17.2Z"/><path class="cls-4" d="M164.85,53.77c-.15-.73-.3-1-.39-1C164.64,53.4,164.79,53.94,164.85,53.77Z"/><path class="cls-4" d="M166.58,70.31l-.1-1A2,2,0,0,0,166.58,70.31Z"/><path class="cls-4" d="M120.8,17.2l1-2.41C121.57,14.53,121.22,16,120.8,17.2Z"/><path class="cls-4" d="M92.37,2.31A6.7,6.7,0,0,0,91,2.57c.45,0,.88-.08,1.32-.11A1.19,1.19,0,0,1,92.37,2.31Z"/><path class="cls-4" d="M107,66.86l-.32,1.1c-.13.94-.25,1.83-.37,2.68Z"/><path class="cls-4" d="M100.93,60.88c0,1.25.81-1.19,1.17-2.11-.34.66-.51.45-.57-.23A21.58,21.58,0,0,0,100.93,60.88Z"/><path class="cls-4" d="M99.51,5.72l-.77.12Z"/><path class="cls-4" d="M116.3,36a.71.71,0,0,0,.37-.2C116.57,35.77,116.44,35.85,116.3,36Z"/><path class="cls-4" d="M62.75,47.1c.06,0,.1,0,.15,0C62.8,46.9,62.74,46.85,62.75,47.1Z"/><path class="cls-4" d="M64.1,8.78l.08.53a1.4,1.4,0,0,0,.48.07Z"/><path class="cls-4" d="M170.64,100.42v-.13C170.41,99.52,170.5,100,170.64,100.42Z"/><path class="cls-4" d="M221,62c1-3.08.53,5.2,1.76.54C222.38,63,221.8,58.13,221,62Z"/><path class="cls-4" d="M93.22,2.42c.45,0,.9,0,1.35,0A8.22,8.22,0,0,0,93.22,2.42Z"/><path class="cls-4" d="M222.74,62.55h0l.12-.48Z"/><path class="cls-4" d="M186.48,128.72c-.13-.26-.25-.17-.37-.07C186.19,128.91,186.28,129,186.48,128.72Z"/><path class="cls-4" d="M176.75,125.93l.28,2.33C176.93,127.2,176.84,126.5,176.75,125.93Z"/><path class="cls-4" d="M187.52,89.57a6.18,6.18,0,0,0,.18-1.89,1.47,1.47,0,0,0-.12.28A3.19,3.19,0,0,1,187.52,89.57Z"/><path class="cls-4" d="M189.13,61.44a3.39,3.39,0,0,0-.2.51c0,.28,0,.6,0,.89Z"/><path class="cls-4" d="M88.84,118.72a4.19,4.19,0,0,1-1.3-.76C88,118.56,83.83,118.77,88.84,118.72Z"/><path class="cls-4" d="M92.38,2.78a1.11,1.11,0,0,1,.84-.36l-.94,0C92.2,2.59,92.18,2.71,92.38,2.78Z"/><path class="cls-4" d="M181,88l.38-4.46C181.17,84.83,181,86.45,181,88Z"/><path class="cls-4" d="M150.94,189.32l-.32-1.71A7.57,7.57,0,0,0,150.94,189.32Z"/><path class="cls-4" d="M182,70.31a11.85,11.85,0,0,0,.73-2.48,2.18,2.18,0,0,0-.19-.53Z"/><path class="cls-4" d="M87.53,118h0Z"/><path class="cls-4" d="M66,101.84c.29,4.25,1.23,1.92,1.93,2.77.69,5.06-.64,2.41-1.07,4.18.1.65.24,1.26.39,1.85l.06.22,0,.11,0,.2.15.78.29,1.48c.38,1.89.74,3.45,1,5,.76,0,1.47-.08,2.16-.07.17.18.94.25-.15.48a52.26,52.26,0,0,1,5.34-.4l1.87-.06,1.9,0a30.57,30.57,0,0,0,7.16-.66,1.18,1.18,0,0,1,.51.27,1.43,1.43,0,0,1-.6-1.52c1.91,0,3.54-.7,4.26,0a2.89,2.89,0,0,0-1.81.5l2-.31c1.8,1-2.74.36-2.74,1.13,3.91-.34,8.46-1.2,11.46-.91.62,1-7,.34-3,1.25l-4.63-.39c3.54,1.61-2.82-.11.44,1.61,6.09.29,6.82-.52,12.9-.22,1.36-.57-.46-.84.91-1.41,4.12-.48,5.86.08,7.24.65l1,.41a3.82,3.82,0,0,0,.51.18,2.59,2.59,0,0,0,.71.14,25.35,25.35,0,0,0,5.47,0l.46-1.52c.31-1.63.27-2.82.52-4.26a9.6,9.6,0,0,1,1.62-4.23l.47,1.87c2.38-5.41-.23-3.75,2.86-9.16,0,1.19-1.43,4.43-1,3.66,2.38-3.35.49-2.87,1.67-5.71l1.19-.19c1.13-2.94,2.19-6.07,3.29-9.28l1.6-4.69c.2-.74.46-1.57.75-2.4,0,.3.06.67.12.92s.18.4.34.4A14.9,14.9,0,0,1,137,80.81c.06,1.07.08,2.17.05,3.07a10.77,10.77,0,0,1-.22,2.06.93.93,0,0,1,.93.28s0,0,0,.11a1.06,1.06,0,0,1,0,.25,1,1,0,0,1-.1.37c-.1.17-.25.14-.38-.25.09,3.31.57.1,1.12,1.63.3,1.85-.19,2.52-.6,1.37,1.49,5.68,3.72,16.25,3.57,22.45l-.42-1.15c.26,4.78,2.48,5.11,2.24,9.61l-.27-.82c1,10.33,3.22,21.59,2.91,29.6,1.45,1.33.75,10.25,2.59,10.69-.11,6-.64,4.34-.16,12.68.21,2.22,1.52,3.15,2.06,5.86l-.91.19,1.44,3.58L150,184.5l.28,1.27.07.31,0,.16,0,.27.2,1.1c0-.44-.07-.9-.08-1.34a4.64,4.64,0,0,1,.08-.72c.07-.41.2-.68.34-.62.1.45.18.8.26,1.37s.2,1.44.28,2.18c.17,1.47.29,3,.39,4.5,1.83.13,3.55.32,4.88.5s2.27.37,2.16.51l9.54-.79c-.21.38-1.81.5-3.07.74,5.09-.94.92,1,5.59.11-.63-.21.34-.55.44-.74,2.33.56,7.63.57,11.54.33l-.75.64c7.08.16,14.92-.31,22.86-.3-2.84-.29-2.19-1.4.14-1.5l.93,1c1.5-.6-2.43-.36.66-1.1,3,.11,2,1.11.29,1.43l1.8-.17,2.91-.17c.48.29-1,.44-1.33.81,1.28-.29,3.93-.07,7.09.11.23-1.5.46-3.13.6-4.69.06-.78.1-1.53.1-2.22,0-.34,0-.67,0-1l0-.45a1.28,1.28,0,0,0-.07-.26l.3-.18c.68-7.91.65-11.53,1.15-18-.83-.19-.42-2.7-.94-4.67.67-4.72,1.78-9.92,2.19-15.63-.07-4.05-.61-1.23-1-3.08.8-.23,1.21-5.93,1.51-2.93.46-6.86.59-8.76.7-17.48-.39.92-.62,2-.83,1.39,0-1.58.63-3.55,1-3.29l.05.42c-.32-9.82,4.14-22.25,3.2-30.13l0,.44-.14-8.09c.44-3.69.38,2.26,1.09-.43-.54-8.77,1.35-13.67,1.11-20.88,2.72-5.32,1.5-19.6,3.58-26.93l-.57.39c-.36-2,.5-2.31.75-3.72-.43.17-.66,2.05-.85.83.22-4.67.6-9.41,1.1-14.19.68-6.2,1.37-12.45,2.06-18.71L223.86.66,218.39.42C214.75.26,211.11.11,207.51,0c-6.14-.15-3.48,2.76-11.22,1.48l2.19-1-2.12.18L195.3.76l-.53,0-.79,0c-2.6.08-5.15.13-7.68.17-.11,2.18-.21,4.37-.32,6.56l-.24,4.38c-.15,2.43-.29,4.86-.44,7.28-.29,4.84-.51,9.64-.39,14.34-.18-.74-.48-.78-.41-2-.86,2.52-.57,9.46,0,9.54-.17,1.88-.55.4-.92,1.55-.57,2.54.55,6.49-.24,7.81-.13.23-.19-.73-.22-1.2.25,1.69-.54,7.78.38,6.23-.65,4.52-.12,8.71-.82,12.31.79,2.42-.89,7.75.37,8.58-1.33-.4-1.54,7.9-1.07,10.82-.35-1-.57,2.47-1.07,1.31-.17,3.28-.09,6.3.64,5.77a16.71,16.71,0,0,0-.77,4.47c0,.37,0,.74,0,1.1,0,.12,0,.14,0,.15v.07l0,.13.16.64a4,4,0,0,1,.13,1.37c-.06.31-.27.32-.73-.62a57,57,0,0,1,.53,7c.08,2.9.1,6.21.07,9.55-.37-5.37-.35-6.39-.33-7.45a39.61,39.61,0,0,0-.46-6.13c.11,1.58.24,3.91.34,6.48s.18,5.37.19,7.61c-.09.2-.27-.58-.49-2.49a28.87,28.87,0,0,1-.11-3c0-.88,0-1.77,0-2.58-.06.5-.16.26-.27-.21s-.22-1.21-.33-1.87a15.12,15.12,0,0,0-.34-1.69,1.62,1.62,0,0,0-.48-.89,1,1,0,0,1,.27-.6c-.11-.37-.08-1.64-.41.07a.51.51,0,0,0,.18.09,9.46,9.46,0,0,1-.33,2.06c-.15.46-.34.63-.56.59-.43-.05-1-1.09-1.16-.81a2.09,2.09,0,0,0,.6-1.52,17.37,17.37,0,0,0,0-1.91,4.28,4.28,0,0,1,.13-1.56c.16-.4.48-.51,1-.79a.56.56,0,0,0-.84,0c0-.8.21-.92.72-.7a8,8,0,0,1-.52-1.27,13.07,13.07,0,0,0-.56-1.36,12.85,12.85,0,0,1-1-3.75c.29,0,.57.89,1,1.31a26.29,26.29,0,0,1-2.38-8.52c.22.2.37-.29.57.88-1.25-6.75-3.51-11.28-4.23-18.8,1.65,2,0-2.6,1-3.18l-1-3.94-.26,1.69c-.58-3.5-1.91-6.46-2.07-9.53l.9,2.53-1.33-6.53.22,3.79c-1.18-3.45-1.34.62-1.83-4.09.28.92-.58-3.51-.25-5.44h0a18.36,18.36,0,0,1-1.49-6c.23-.74,1.31.33,1.47-.15-1.22-1.55-1.66-8.15-3-10.15.36.68.94.62,1,.37l-1-1.31c0-1.66,0-1.92.54-1.73-.7-4.9-1.13,1.78-1.52-4.11a7.68,7.68,0,0,1,.49,1.14c-.34-2.94-.94-5.72-1.53-8.45-.29-1.37-.58-2.72-.82-4.06l-.18-1L160.32,8c-.13-.86-.25-1.73-.36-2.62.32-1.47.66.07,1,1.7l.23,1.17.06.25,0,.17.09.27c.12.29.25.32.41-.17l-.62-3.13c-.22-1.07-.45-2.16-.67-3.25l-3.72.16c-1.17.05-2.58.11-3.23.17l-4.89.34c-3.25.2-6.45.33-9.53.22l1.41.12c-1,1.59-5.63-.78-9.45,0,.93-.12,1.23-.89,1-.71-1.41-.07-2.84-.07-4.34,0l-2.82.1-3.39.15c-.23.94-.46,1.92-.7,2.93s-.51,2.1-.64,2.75c-.33,1.51-.68,3.14-1.07,4.88L119,12.41c-1.21,2.83-2.47,7.65-3.58,10.76.11,1.06-.48,2.85.41,1.92-2.55,4.54-3.62,9.28-4.6,13.9-.27,1.55-.61,3.38-1.08,5.08s-1,3.16-1.52,3.06c.2-.69.34-2.43.2-2l-1.25,5.59c0,1.27,0,1.51.09,1.59s.16,0,.34.35a49,49,0,0,1-1.41,7.37,15.26,15.26,0,0,0,.51-4.47c-.08-.69-.25-1-.3-1.54,0,.88-.24,2.39-.31,3.38-.09-.78-.15-.81-.25-.24s-.24,1.67-.39,2.9-.33,2.59-.54,3.68-.45,1.94-.64,1.87l.35-2.49c-.42,1.87-1,4.67-1.47,6.81a6.66,6.66,0,0,1-.06-1.61c.69-5.14.48-1.87.81-3.61l.28-1.75-.06.22c-.06-.7-.43.59-.69.85s-.41-.4,0-3.65c.22,0,.22,1.59.45,1.31.47-4.06.64-5.51.72-6.44s0-1.21.13-2.29l0,.24.42-4.95-.25,1.79c-.53,1.59-.81,1.9-1,1.66a5.73,5.73,0,0,1-.18-1.93c0-.89,0-1.85,0-2.68a6.36,6.36,0,0,0-.55-2.31c.32.73.53.88.67.88s.23-.23.3-.5a5.55,5.55,0,0,1,.68-2c.26-1.29.54-2.61.79-2.6-.36-.17-.22-.92-.12-1.49a2.62,2.62,0,0,0,.06-.89s0-.29,0-.45,0-.37-.08-.56a12.11,12.11,0,0,0-.3-1.23c.29-.15,0-2.64.76-2.08-.23-3.22-.51.76-.87.48-1-5,1.21-11.65-.16-18.78a48.68,48.68,0,0,0-.87-5.83c-.32-1.86-.64-3.27-.9-5-.7.1-1.57.19-2.5.27-.82-.23-.39-.5.45-.71a20.25,20.25,0,0,1,2-.36,39.54,39.54,0,0,0-5.06-.29,37.86,37.86,0,0,0-4.12.28c.6-.26,0-.47-.91-.8-2.35.08-1.57,1.06-4.67.63A8.44,8.44,0,0,1,91,2.57c-2.77.27-5.5.81-8.37,1.08-.76-.51,1.73-.78,2.74-1.11C82.11,2.77,77,3,76,3.81l2.06.29c-1.17,0-.6-.7.26-.84,2.77-.64,4,.28,4.14.57l-2,.19c2.1,1.71,8.2-.28,12.31-.18L91,5.09l4.22-1c.89.33,1.51,1-.52,1.21a6.23,6.23,0,0,0,2.72.1,4,4,0,0,1,2.23.15c.2.1.07.16-.15.21l2.68-.37c-.69.26-.38.88-1.58.7a9,9,0,0,0,1.3.18,17,17,0,0,0,.33,3.67,6.11,6.11,0,0,1-.17,3.29l-.07-.43c.42,7.17.91.69,2,6.07l-2.26,3.62.91.7c0,.74-.1,2.21-.46,1.93.62,2.76.4-.46,1,1.13-.84,3.56.39,9.82-1.07,10.62.69,1.28.54-3.4,1,.4a1.54,1.54,0,0,0-.63,1.24,10,10,0,0,0,.09,2.07c.08.75.2,1.51.24,2.33a12.75,12.75,0,0,1-.15,2.85c-.81,0-.38-4.67-1.11.42.69.49.61,2.31.4,4.91a66.35,66.35,0,0,0-.43,7.49c.54-1.56.65-.11.68,2.29s0,6,.13,7.78c-.25,1.06-.44,7.36-.67,14.36.57-1.58,1.15-3.18,1.58-4.21L103.06,80c.58-3.9,1.2-6.81,1.83-9.35.58-2.25,1.28-4.92,1.86-7.17a51,51,0,0,1-1.29,8.69L106.71,68a71,71,0,0,1,1.47-7.38l-.31,4c.85-3,1.67-6.61,2.46-9.9a73.76,73.76,0,0,1,2.8-9.46c-.24-.56-1,.14-1.44-.14s-.63-1.31-.19-3.73c.38.17,1.06.38.74,2.1a11.32,11.32,0,0,1,.67-2.89c0,.87,0,1.83-.12,2.9,1.08-2.59-.07-1.85.58-3.81.56.2.8-1.22,1.17-.83a6.6,6.6,0,0,1-.38,1,6,6,0,0,0-.4,1.58l.35-1,.18-.5.15-.39c.21-.51.43-1,.65-1.48a8.49,8.49,0,0,1,1.21-2c-.38.08-.77-.22-.4-1.74,1.09-3.87,1.07-1.12,2-3.29-.12-1,1-3.39.19-3.71a2.72,2.72,0,0,1,1.15-1.59c.21-2.1,2.64-9.36,1.07-7.37l-.21.49.06-.34v0a44.45,44.45,0,0,1,1.67-6.66c.35-1.09.74-2.24,1.11-3.27.31-.82.61-1.64.92-2.45,1,.06,1.84.11,2.7.12,1.17,0,2.36,0,3.52-.06v.3c4-.34,9-.2,11.89-.84,1.19,0,2.82.54,2.31.9,3.09-.23,3.44-.56,7.9-.07-3.11.52,1.07.46-3.18.38,2,.13,3.24.31,4.5.36h.91l.57-.06c.42-.07.93-.19,1.76-.39-.48.24-.5.43-.36.56a4.32,4.32,0,0,0,0,1.25,3.84,3.84,0,0,0,.11.59l.22.85c0-.22,0-.5,0-.69l.07-.38c0-.28.09-.57.12-.89q.12.44.21.87.1.63.21,1.23c.14,1,.28,1.9.41,2.85l-1.16-.85c.2,8.31,4.54,14.26,3.6,20.77,1.05,2-.27-4.48.86-2.71.51,3.75-.24,7.88,0,9,.33,5.19,2.25,4.51,2.8,9.92.23-.75,1.05-1.55,2.07,2.38.51,3.75-.69,4.84-1.37,2.53-.18-.89-.15-1.34,0-1.32-.34-1.18-.76-2.74-.88-1.2L164,52c0,1.91.88,7,.09,5.93.82,2.76.79,1.1.61-1,.31,4.87,1.27,7.48,1.77,12.46.06-.81.35-1.61.48-.83.8,7.3,1.21,3.07,2.2,7.94-.06,2.87-1.45-.78-.16,4.07.16,3.07-.82.79-1.31-.35,1.45,4.37,1,8.46,1.31,11l-.69-2.31a29.53,29.53,0,0,1,.8,3.72l.47-1.47c.12,1.41.32,2.58,0,2.61.71,1.35,1-1.3,2.1,1.43a20.68,20.68,0,0,0,.55,3.6,11,11,0,0,1,.23,1.71,2.47,2.47,0,0,1,0,.63,2.06,2.06,0,0,1-.18.62l-.16-1.15-.11-.7a3.77,3.77,0,0,0-.2-.77c-.12-.28-.24-.15-.36,0s-.53.76-1-1.69A17.55,17.55,0,0,1,171,101c-.07.22-.23-.17-.35-.54,0,.36,0,.68,0,1,0,0,0,.2,0,.33l0,.38.09.69c.12.88.25,1.57.37,2.11a6.32,6.32,0,0,0,.76,2c.53.93,1.12,1.59,1.91,6.26-.29-.16-.39.78-.34,2.06a21.64,21.64,0,0,0,.4,3.58c-.73-4.31.31-3.47,1.11-1.2a30.46,30.46,0,0,0,1,5.66,11.41,11.41,0,0,1,.73,2.64l-.48-3.92c.44-.59.84,2.12,1.48,4.89-.07,2.07-.64-2.06-.48-.05.5.17.77,3.16,1.16,7.1.19,1.94.4,4.08.64,5.92a18.69,18.69,0,0,0,.76,3.9c.24,2.48.27,4.15.29,5.64a42.16,42.16,0,0,0,.28,5.06,19.16,19.16,0,0,1,.78,3.45c.22,1.45.42,3.18.63,5s.43,3.72.68,5.43a29.91,29.91,0,0,0,.83,4.15c-.35-4.21-.51-5.94-.51-6.73s.17-.55.44-1.05l-1.92-8.19c.39.21.72.07,1-.43a28.65,28.65,0,0,0-.8-3.43,19.73,19.73,0,0,1-.68-3.26c.48-.61.42,0,0-5.59.4,5,.73,6.67,1,7.33a5.7,5.7,0,0,1,.82,2.73c0-.5.11-.71.21-.51l.9,15.23a27.41,27.41,0,0,0,.5-5.21c.1-2.56.15-5.67.2-8.82s.08-6.33.16-9.21.21-5.49.45-7.79l-.42,2a38.13,38.13,0,0,1,0-6.07c.13-1.71.31-3.53.3-5.8.44,2.73.73,1.34,1.12,1a38.79,38.79,0,0,1,0-5.39,29.62,29.62,0,0,0-.44-7.26c.32-1,.64-2.09,1-3.39a52.18,52.18,0,0,0,.21-5.88c0-1.69-.18-3.09-.33-4.36-.07-.61-.14-1.21-.21-1.84s-.15-.92-.2-1.44a17.83,17.83,0,0,1,0-3.51c.55,1.75,1.11-.8,1.36,3,.11-1.89.32-3.59-.09-3.64.43-1.09-.5-5.29.16-7-.21-.81-.82-1.11-.65-3.23.14-.22.29,0,.29,0-.29,0-.2-3.35-1-1.53,2.17-5.73.79-16.3,2.67-21.28,0-4.14.13-9.13.3-12.88.16.25.29,0,.19.74.85-5.14-1.51-3.28-.56-9.13,1.12-3,.34,3.16.8,1.3,2-.7.14-7.11,1.51-11l.06,1c.83-3-.32-7.43.1-12.36,0,0,.16.25.29,0a40.89,40.89,0,0,1-.68-6.81c0-1.26-.05-2.57-.08-3.84,0-1.09,0-2.15-.05-3.13.66,1.87.3,1.85,1.07,1.87,0-.89-.56-.89-.92-1.78,0-.2.41-.37,1.58-.44.36.11.77.21,1.19.31s.77.22,1.32.34c1,.25,1.86.55,2.06,1l-3.34.05a3.54,3.54,0,0,0,.47.3,1.09,1.09,0,0,0,.57.15,11.28,11.28,0,0,0,1.92,0,22.48,22.48,0,0,1,3.69-.25l-.27.46c6.16-.15,6.24-1.33,12.87-1.24l-.69-.36C216,5,215.37,6.82,219,6l1.09,1.19,4-.51c1-.21,2.47-.43,4-.61.05.82.06,1.67.05,2.48a14.18,14.18,0,0,1-.63-1.94c-1,.21-1.87.39-2.59.56l-.51.12-.23.07-.12,0-.22,0-1.64.25h2.11l.43,0c.58,0,1.24-.11,1.91-.22a1.27,1.27,0,0,0,.34.8,8.16,8.16,0,0,1-.2-.93.82.82,0,0,1-.46,0,8.66,8.66,0,0,1,.82-.28,5.39,5.39,0,0,1,.61,2.67l0,.52v.68l0,1.42c0,1-.11,2-.2,3-2.22-1-1.62,12.21-3.69,15.46.14,8.39-1.76,16.47-2.45,26.17,2.07-3.29-.19,2.83,1.68,2.39a11.13,11.13,0,0,1-.31,3.32l-1.67,6.74c-.67,1.58-.22-2.18-.65-2-.56,4.92-1,2-1.72,5.23.72-.61.79,1.8.31,4.59l1.18-3.89c.38,7-2,5.84-1.68,12.88l-.38-2.25c0,3.6-1.14,13.17,0,16.8-.26.61-.83,1.4-.83-.18-1,8.52-.05,19.13-1.52,25.69l-.39-.69c0,1.6.6,2.85,0,4.8-.18-.12-.39-.68-.48.06a25.83,25.83,0,0,1,0,6.38l-.35-1.85c-1.29,8.28.14,12.88-.15,19.89-1.31-.13-2.3,6.39-2.79,9.64l-.17-.13a116.23,116.23,0,0,0-.56,13c0,2,0,4,.05,6.09v1.95l0,.16,0,.32c.05.45.08,1,.1,1.52h0c-.47-.18-.88-.32-1.25-.44l-.53-.15a7.42,7.42,0,0,0-1.22-.12c-2.17-.13-4.65-.19-7.23-.23-5.16-.07-10.74-.06-15.24-.46,1.38.24-.22,1-1.82,1.16-2.11-.27-5.83.92-5.5-.29l.76,0c-1.59-1.19-5.93-.87-9.31-.91l-.56,1.59a31.74,31.74,0,0,0-7-.86c-.63,0-1.26,0-1.9,0h-1.63l-1.26.13c-.11-.39-.24-.82-.35-1.29s-.2-1.21-.29-1.8l-.25-1.78a15.41,15.41,0,0,1,0-5.57c-.67-2.06-1-4.69-1.66-6.74h.85c-.54-5.9-.81-8.85-1.95-16.08l.79,1.41c-.47-4.1-3.09-4.86-3.63-8.63L152,145c-.94-7.14-.77-14.51-2.82-21.41.2.09.59.25.79,1.4-.4-3.37-.83-13.11-2.39-11.67,1.11-.23-.84-7.38-1.84-11.17l.91.49c-1.48-3.12-1.78-3.18-2.66-7.69,0-1.09.54-1,.51.43,0-3.65-1.15-2.7-1.27-7.11L144,89.8a14.89,14.89,0,0,0-.59-3.32,7.61,7.61,0,0,0-.39-.88c-.16-.4-.35-.87-.6-1.52a33.79,33.79,0,0,1-.7-6,31.94,31.94,0,0,1,.14-5.89c-.22.06-.55-.32-.83-1a12.89,12.89,0,0,1-.64-3.61c.13-1.24.39-.64.52-.28a67.88,67.88,0,0,0-1-8c-.87,2.43-1.63,4.58-2.38,6.68a22.92,22.92,0,0,1-2.14,4.6c-.08-.53-.26-.45-.49-.13,2.92-7,5.23-12.37,5-11.61.19-1.47-.31-.85-.61-.82s-.39-.51,1-5.2c-1.16,3.55-2.74,8.36-4.38,13.36a91.47,91.47,0,0,1-4,10.67,1.72,1.72,0,0,1-.48.46l.21-.73a28.78,28.78,0,0,0-1.49,3.91c-.45.92-.82,1.67-1.18,2.42l-.42.86-.34.76c-.76.18-2.08,4.1-2.87,5.93.84.17-.29,2.53,1.29.54-.17.27.06-.39.53-1.62a6,6,0,0,0,.25-.82l0,.15c.48-1.21,1.12-2.79,1.85-4.59a10.68,10.68,0,0,1-1.79,5.13c.11,1.15.19,2.4.19,3.09-2.14,2.06-4.75,6.67-5.7,7.07-.78,2.37-1.8,5-2.72,7.65-.47,1.3-.91,2.59-1.29,3.81a2.86,2.86,0,0,0-.14.58l-.07.46c0,.36-.08.71-.12,1a10,10,0,0,0-1.25.7,2.63,2.63,0,0,1-1.49-.18c-.36-.17-.59-.4-.91-.52.5-.08,1-.11,1.54-.16l.35,0,.16,0a.56.56,0,0,0,.23-.13l-.31.07-.3,0-.38,0-1.64.09-3.45.16c-2.23.12-4.13.34-4.55.89-4.35-.5,2.45-1-3.54-.84l.81-.33c-5.71-.86-10.39-.22-15.18.4-2.39.32-4.82.63-7.42.74-1.29.06-2.67.08-4,0a13.89,13.89,0,0,1-2.8-.42c0-.29.08-.59.13-.88-.06.4-.1.7-.15.91a.16.16,0,0,1,.1.17l-.24,0v-2.82l-.06-1.28q-.15-2.81-.38-5.63c-.3-3.76-.68-7.54-1-11.31a175.35,175.35,0,0,1-1.11-22.41c0-4.19-.73-4.59-1.46-7.09l.84-1-1.36-4.27c-1.22-6.1,1.42-10.84-.6-18.53l-.53,1.05c-.1-2.81-1-8.85-.29-8.44a2.46,2.46,0,0,1-.46-2l.47-.12-1.32-6.82c-.06-5.37,1.93.69,1.45-7.1-.4-2.88-2-8.15-2.22-7,.06,1.17-.08,3-.54,3.13l-.45-2.63c-1.42-.38-3-2.31-3.49,4.26L61.87,18l-.56,1.51L61,15.74c-.47,2.21.19,3.54.69,5a3.41,3.41,0,0,0-.6,2l1.66,4.34c-.51.58-1.23-1.91-1.31,1.1.77,2,1.07-2.09,1.73,1.33-.47,2.21-1,1.62-.3,4.12-.34.38-.6-.14-.84-1.14.6,2.24.63,6,1.46,7.1-.62,2.31.77,7.62-.57,7.5a24.93,24.93,0,0,1,1.54,6c-1.86-3.68.48,7.8-1.28,6.92,1.62,2.7,1.38,10.11,2.54,15a2.56,2.56,0,0,1-.37-1.25,32.67,32.67,0,0,1-.41,5.48c1.2.27,1.79,4.62,2.69,6.92-.88,3.52-1.53-2-2.54-.83.94-.24,1.39,5.9,2.1,4.68-.51,2.68-.18,2.28-1,3.71,1.5.35.43,2.43,1.49,4.54-.44,3.86-1.3,1.08-.54,5.23C66.77,105.52,66,101.84,66,101.84Zm69-19.09v0l-.39,1.06Zm1.73-4.19c-.21.4-.48,1-.76,1.73a3.76,3.76,0,0,1,.16-1.88C136,79.16,136.5,78.41,136.71,78.56ZM127,86.74c.4-1.27.72-1.61,1-1.71-.23.58-.48,1.26-.8,2.17,0,0,0,.14,0,.19A1.25,1.25,0,0,1,127,86.74Z"/><path class="cls-4" d="M127.07,89.37a4,4,0,0,1-.15.52c.17-.22.33-.43.48-.65l-.06-.54Z"/><path class="cls-4" d="M120.33,18.3l.07-.17a1.19,1.19,0,0,1-.22.32C120.25,18.35,120.28,18.36,120.33,18.3Z"/><polygon class="cls-4" points="149.17 178.84 149.38 178.81 149.1 178.1 149.17 178.84"/><path class="cls-4" d="M106.8,54.05a3.57,3.57,0,0,0,0-.71A3.29,3.29,0,0,0,106.8,54.05Z"/><path class="cls-4" d="M105.11,53l.3-3.06C105.24,51.36,105.16,52.31,105.11,53Z"/><path class="cls-4" d="M105.53,42.71a4.66,4.66,0,0,0-.37.46v0Z"/><path class="cls-4" d="M179,105.37s0,.08.05.06S179.06,105.24,179,105.37Z"/><path class="cls-4" d="M166.54,44.65c.28.73.56,1.45.79,2.23C167.17,45.6,167,44.6,166.54,44.65Z"/><path class="cls-4" d="M180.91,88.53s0,0,0,0l0-.5Z"/><path class="cls-4" d="M167.88,50.2a13.36,13.36,0,0,0-.55-3.32A19.83,19.83,0,0,0,167.88,50.2Z"/><path class="cls-4" d="M78.72,2.23l-.74,0c0,.06,0,.1-.09.14Z"/><path class="cls-4" d="M77.89,2.33l-.82.1A1.81,1.81,0,0,0,77.89,2.33Z"/><path class="cls-4" d="M75.35,2.64l1.72-.21A3.82,3.82,0,0,0,75.35,2.64Z"/><path class="cls-4" d="M99.25,2.62l.39-.31C99.43,2.38,99.3,2.47,99.25,2.62Z"/><path class="cls-4" d="M105.61,5.3c0-.81.11-1.81.21-3A36.67,36.67,0,0,0,100,2.07l-.34.24a8.61,8.61,0,0,1,2.59,0c1.09.09,2.25.24,3.3.32A8.82,8.82,0,0,0,105.61,5.3Z"/><path class="cls-4" d="M101.83,32.44l.24-5.16c-.32.9-.76,2.09-.84-.26C100.26,33.53,102,25.68,101.83,32.44Z"/><path class="cls-4" d="M101.35,52.54c-.07-1.78-.19-1.58-.31-.85a19.23,19.23,0,0,1-.34,2.07C101,55.82,101.07,56.06,101.35,52.54Z"/><path class="cls-4" d="M145.45,6.79l-.28.76C147.31,7.44,145.19,7.26,145.45,6.79Z"/><polygon class="cls-4" points="161.98 13.51 162.1 11.38 161.24 10.53 161.98 13.51"/><polygon class="cls-4" points="158.8 27.31 158.54 26.41 159.41 29.88 158.8 27.31"/><path class="cls-4" d="M189.59,66.48l-1,.6C188.69,68.53,189.73,68.89,189.59,66.48Z"/><path class="cls-4" d="M212.27,7.05a7.8,7.8,0,0,0,4.72.31C215.11,7.3,213.23,6.93,212.27,7.05Z"/><polygon class="cls-4" points="164.97 186.28 166.66 185.97 163.48 186.23 164.97 186.28"/><polygon class="cls-3" points="229.34 190.02 249.04 4.86 292.38 4.86 304.19 56.07 327.83 4.86 371.17 4.86 371.17 190.02 308.13 190.02 327.83 71.83 300.25 126.98 280.56 71.83 280.56 190.02 229.34 190.02"/><path class="cls-4" d="M229.34,188c-.54.26-.23.84,1.27.73l1.07-1Z"/><path class="cls-4" d="M239.49,189.86c1.77-.48,3.82-1.33,2.67-2.24-1.76.95-2.18.56-4.07,1.69-1.51.12-2.64-.32-2.38-.68-.54.25-2.35-.22-3.16.4a11.93,11.93,0,0,0,7,.17C240.16,189.42,239.61,189.68,239.49,189.86Z"/><path class="cls-4" d="M282,88.31l-.12.31C281.9,88.63,281.93,88.52,282,88.31Z"/><path class="cls-4" d="M311.34,109.13c-.29.64-.33.94-.26,1C311.31,109.54,311.49,109,311.34,109.13Z"/><path class="cls-4" d="M317.31,99.66a1.71,1.71,0,0,0-.18.2C317.22,99.88,317.29,99.86,317.31,99.66Z"/><path class="cls-4" d="M282,88.31a2.58,2.58,0,0,1,.31-.54C281.94,86.4,282,87.71,282,88.31Z"/><path class="cls-4" d="M259.81,187.46a6.53,6.53,0,0,0-1.32.27c.42,0,.83-.08,1.24-.11Z"/><path class="cls-4" d="M282.75,123.94v.74a4.16,4.16,0,0,0,.41.62Z"/><path class="cls-4" d="M282.91,154.84c0-.7-.81-.94-1.18-1.21a2.65,2.65,0,0,1,.58,1.52A.88.88,0,0,0,282.91,154.84Z"/><path class="cls-4" d="M266.74,190.88l-.87.12Z"/><path class="cls-4" d="M282.94,101.82a.67.67,0,0,0,.3-.28C283.13,101.54,283,101.65,282.94,101.82Z"/><path class="cls-4" d="M237.07,154.82c-.06,0-.1,0-.15,0C237,155,237,155.05,237.07,154.82Z"/><path class="cls-4" d="M229.13,190v-.49a1.35,1.35,0,0,0-.45-.16Z"/><path class="cls-4" d="M319.2,98.63l0-.11C319.06,99,319.08,98.93,319.2,98.63Z"/><path class="cls-4" d="M374.66,107.48c-.76,3-1-4.83-1.81-.36C373.18,106.7,374.17,111.18,374.66,107.48Z"/><path class="cls-4" d="M260.62,187.58c.41,0,.84,0,1.26,0A7.14,7.14,0,0,0,260.62,187.58Z"/><path class="cls-4" d="M372.85,107.12h0l-.08.46Z"/><path class="cls-4" d="M312.91,139.45a1.9,1.9,0,0,0,.47-.6C313.29,138.85,313.16,139,312.91,139.45Z"/><path class="cls-4" d="M321.16,97.24l-.25.84A6.37,6.37,0,0,0,321.16,97.24Z"/><path class="cls-4" d="M309.9,164.73a5.83,5.83,0,0,0-.36,1.75,1.5,1.5,0,0,0,.15-.25A2.93,2.93,0,0,1,309.9,164.73Z"/><path class="cls-4" d="M307.15,192.43a4.1,4.1,0,0,0-.56-.17l-1.15,0,0-.12,0,.13Z"/><path class="cls-4" d="M245.18,74.77a4.06,4.06,0,0,1-.89,1.14C244.93,75.56,244.73,79.45,245.18,74.77Z"/><path class="cls-4" d="M259.83,187.94a1,1,0,0,1,.79-.36l-.89,0C259.66,187.75,259.64,187.86,259.83,187.94Z"/><path class="cls-4" d="M316.29,166.89l-.82,4.12C315.75,169.87,316,168.37,316.29,166.89Z"/><path class="cls-4" d="M317.41,35.63l-.31.92A2.56,2.56,0,0,0,317.41,35.63Z"/><path class="cls-4" d="M313.54,183.35a7.26,7.26,0,0,0-.54,1.08l-.22.56a.49.49,0,0,0-.12.13.48.48,0,0,0,.2.11l.11-.14L313,185s.07-.21.1-.3Z"/><path class="cls-4" d="M244.28,75.91h0Z"/><path class="cls-4" d="M243.34,103.68c.45-4-.88-2-1.42-2.9.2-4.79,1.05-2.12,1.78-3.68,0-3-.74-5.38-.46-7.59.2-.15.31-.57.48-.05-.54-3.23.95-9.32.24-13.1a1.16,1.16,0,0,1,.32-.45,1.49,1.49,0,0,1-1.57.41c.17-1.79-.34-3.39.45-4a2.58,2.58,0,0,0,.31,1.75l-.11-1.9c1.21-1.58.09,2.59.85,2.67,0-3.68-.35-8,.24-10.8,1.07-.47-.36,6.58.94,2.94l-.84,4.29c1.95-3.14-.4,2.62,1.64-.24.9-5.66.16-6.42,1.06-12.07-.43-1.34-.88.33-1.31-1-.15-8.18,3.23-6.08,2.51-12.17-.51-1.6-1.73-2.34-.6-6.49l1,1.56c.7-5.5-1.31-3.32.07-9,.34,1.08-.08,4.38.15,3.56,1.3-3.65-.37-2.72-.07-5.59l1.08-.49c.47-5.89.42-12.43.93-19,.26.4.46,1.54.93.06A12.48,12.48,0,0,0,252,9c0-.28,0-.58,0-.88h.83l.43,0,.95,0c1.74,0,3.47.11,5.19.2,3.45.18,6.83.42,10,.66l3-.88c.71,0,1.31.4.55.57,3.1.33.16-.56,1.65-.9,1.76-.07,2.33.5,1.21.77,2.08-.29,4.82-.59,7.74-.8,1.46-.1,3-.19,4.46-.24l1.26,0c.33,0,.65,0,.95,0a8.37,8.37,0,0,1,.13,1.17,4.16,4.16,0,0,1,0,.5v.2l0,.27,0,.54-.25-.52c-.08-.15-.19-.4-.23-.39a.28.28,0,0,0,0,.08l0,.2.08.38c.05.25.11.48.17.7a9.32,9.32,0,0,0,.42,1.17,14.43,14.43,0,0,0,1,1.81A7.84,7.84,0,0,1,293,18l-.33-.74c.91,4.79,2.16,9.76,3.24,14.48.54,2.36,1,4.65,1.41,6.83.19,1.09.35,2.15.48,3.17l.09.76c0,.27,0,.43.11.9.11.83.23,1.65.33,2.44.84.83,1.55,4.51,2.35,8.34s1.63,7.49,2.1,5.56c.26,1.85.48,3.42.6,4.5.9-1.28,1.42-1.88,2.27-3.22s2-3.47,4.6-8.45a22.5,22.5,0,0,0,1.64-4.84c.19-.78.36-1.55.58-2.34l.17-.61.1-.31.06-.22c.07-.27.16-.56.27-.86l.87.33.59-3.6,1.79-1.23.8-2.3c-.46.85-1.24,1.69-1.42,1.44,1.21-3.61,4.46-8.12,4.93-8l3-8.47c.26.34-.26,1.75-.54,2.93,1.15-4.74,1.25-.38,2.3-4.73-.43.45-.36-.51-.49-.68,1.42-1.75,3.51-6.27,4.84-9.71l.28.91.38-.78.06-.1a2.09,2.09,0,0,0,.1-.21l.23,0,.16,0,1.07,0L336.39,9c2.94-.07,5.95-.15,9-.14-2.68-.3-2.06-1.41.13-1.51l.87,1c1.42-.61-2.28-.37.62-1.11,2.79.11,1.87,1.11.27,1.43l3.39-.34c.2.29-.6.44-.8.82,1.39-.61,5.85,1,7.86-.08l.19.29c2.87,0,5.14,0,7.22-.11l.77,0h.47l.19-.06L367,9a2.49,2.49,0,0,1,.07.51.74.74,0,0,1,.47,0l.14.11a.7.7,0,0,1,.06.09l.06.3a15.09,15.09,0,0,0,.61,2.79c-.27,4.46-.93,9.42-.86,14.8.42,3.79.71,1.11,1.21,2.81-.77.28-.69,5.65-1.25,2.86.13,6.46.16,8.25.78,16.42.32-.88.45-1.88.72-1.36.12,1.48-.33,3.37-.7,3.16l-.08-.39c1.16,9.16-2.24,21.16-.63,28.46l-.08-.41.83,7.57c-.13,3.49-.58-2.09-1.05.49,1.28,8.17-.19,12.91.67,19.63-2.27,5.21.16,18.48-1.29,25.51l.53-.41c.53,1.82-.3,2.2-.42,3.54.41-.19.47-2,.76-.85.65,15.39-.78,31.76-1.26,47.54a9.68,9.68,0,0,0,.25,2.71l.07.24c0,.07.05,0,.07.05l.16,0a2,2,0,0,1,.36.17,1.68,1.68,0,0,1,.9,1.57,3.67,3.67,0,0,1-1.15-.32,1.27,1.27,0,0,0-.23-1,.32.32,0,0,1-.14.2l-.14.07-.09,0c-.05,0,0,0-.24,0-1.46.08-2.94.14-4.42.17-2.95.07-5.92.06-8.88,0-5.92,0-11.81-.09-17.51.42.68-.23.7-.53,1.81-.52-2.41-.72-8.9,0-8.95.55-1.77-.07-.41-.53-1.5-.83-2.42-.43-6.06.92-7.34.2-.22-.12.67-.23,1.12-.29-1.58.35-7.34-.09-5.83.74l-.79-.06-.21,0a1.86,1.86,0,0,0-.41,0c-.27,0-.58.06-.9.1a2.22,2.22,0,0,1,.34-1.35c-.25.06-.18-.89-.08-1.65s.3-1.65.47-2.45c.33-1.61.58-3,0-3.49,1.29.52,2.32-7.22,2.13-10,.26,1,.81-2.25,1.19-1.11.49-3,.71-5.88-.07-5.46,2.54-5.34.59-11.49,3.17-14.31.79-9.16,1.7-17.61,2.74-25.8,1.29.52-1.37,9,.09,8.9.74-7.81.34-12.45,1.93-20,.52-2,.4,1.22.51,1.93.19-2,.44-3.86.73-5.73.19-1.18.38-2.35.56-3.51l.77-4.56c.51-3,1-6,1.43-8.86s.77-5.51.95-7.73c.19-.33.19.49.14,1.41.31-2.11,1.18-5.88.19-3.69l-.09,1.61c-.48,1.5-.79,2-1,2s-.38-.38-.52-.81c-.27-.9-.49-1.76-.87-.94a14.94,14.94,0,0,0,1.43-3.43c.37-1.25.67-2.64,1-4.06s.66-2.89,1.13-4.37a15.82,15.82,0,0,1,1.81-4.09c0-1-.19-1.34-1,1.07.55-2.57,1.14-4.66,1.64-4.83.32-2.81.15-3,0-3s-.39.21-.17-1.5c-.16.36-.5,1-.88,1.81.55-1.71,1.31-3.49,2.25-6a2.35,2.35,0,0,0,.12-.29h0c-1.4,3.44-2.7,6.67-3.88,9.42a65,65,0,0,1-3.24,6.78A16.58,16.58,0,0,1,328.3,65c-1.14,2.34-2.31,4.91-3.4,7.42s-2.08,4.84-3.11,7.25S319.92,84.09,319,86s-1.82,3.75-2.91,5.62c1-4.94-1.61,2.26-2.46,1.45l-2.53,5.81c.52-.63,1-1.21,1.48-1.74-.28.55-.54,1.1-.79,1.65l-.37.81-.24.57-.82,2.18a20,20,0,0,1-1.89,4l.69-2.43-2.6,5.69,2-3c-1,3.28,1.43.31-.84,4.15.3-.86-1.5,3-2.87,4.24v0l-.33,1.25c-.1.38-.19.71-.33,1.11a9.68,9.68,0,0,1-1.2,2.38c-.21,0-.29-.5-.39-1s-.19-.89-.3-.94a6,6,0,0,1-.59,2.35c-.35.87-.78,1.77-1.18,2.79-.28-.54-.56-.87-.84-.73.27,0,.43-1.23.43-1.6a2,2,0,0,1-.59.62c-.28-1.52-.24-1.76.05-2.34-.4-1.33-.57-.75-.7-.23-.06.27-.12.51-.22.38a6,6,0,0,1-.51-1.75c.15.25.2,0,.49.51-.13-.48-.27-.93-.41-1.37l-.23-.64-.33-.91c-.48-1.25-1-2.48-1.47-3.7a65.35,65.35,0,0,1-2.63-7.27c.55-1.79,1.75,4.1,2.07,2.16-.67-1.71-1.4-3.43-2.15-5.16-.39-.86-.77-1.73-1.15-2.59-.33-.7-.94-2.18-1.41-3.31-2-4.81-3.66-8.76-5.22-13.51l.57,2c-.32,1.45-.75-.34-1.48-3.26-.35-1.44-.78-3.17-1.22-4.68a10.71,10.71,0,0,0-1.19-3.06c.32.55.15-2.2.11-1.8a105.67,105.67,0,0,0-3.88-10.26c.2,4.44.42,9.43.68,15.25l-.41-2.84a60.92,60.92,0,0,0-.26,6.26c0,2.6,0,5.31-.13,7.34.4,2.11.34,4.26.93,3.81a37.14,37.14,0,0,0-.82,8.55V100l0,.85c0,.57,0,1.14.07,1.7.06,1.12.15,2.23.24,3.34.36,4.42.77,8.7-.2,12.94,0-1-.36-2.41-.36-1.61l.38,7.22c.69-.57.42-1,1-2.46a14.1,14.1,0,0,1,.73,4.74c-.46-3.25-1.12,0-1.5,1.43.21-.24.44.24.66.12-1.23,3.77,1.39.64.56,5.78l-.36-.27a36,36,0,0,1,.56,5.78c-.8.86-.37-2.05-1-2.18,0,2.92,1.52,5.76.72,8.4-.23-1.24-.23-3-.45-4.26a14.6,14.6,0,0,0-.85,5.34l0-.21-.43,4.94.26-1.26c2.09,3.66.38,7.44,1.75,12.36-1.3-4.78-.75-.79-1.66-1.16-.25,1.26-.53,3.17-.79,2.63.73,2.32-.58,3.88.49,7.16-.29.15,0,2.49-.76,2,.23,3,.51-.71.88-.46.49,2.28.21,5-.05,7.87-.12,1.45-.24,3-.26,4.52a10.87,10.87,0,0,0,.38,2.84l-.17.09c-.75.14-1.42.3-2.1.48l-.5.14c-.18.05-.45.09-.65.14l-1.27.28a40.27,40.27,0,0,1-5.95,1c-1.81-.47,1.48-1.07,1.48-1.07a27,27,0,0,0-7.87,0c.56-.26,0-.47-.86-.8-2.21.07-1.47,1.06-4.39.63a7.45,7.45,0,0,1,2.21-1.17c-2.6.26-5.17.81-7.87,1.07-.71-.5,1.63-.77,2.58-1.1-3,.23-7.85.46-8.78,1.27l1.94.29c-1.1,0-.57-.7.25-.84,2.59-.64,3.74.27,3.89.57l-1.92.19c2,1.71,7.7-.28,11.57-.18l-1.61,1.25,4-1c.84.33,1.42,1-.49,1.21,2.77.62,2.45-.44,4.83.25.26.1.14.16-.1.21l2.71-.37c-.53.26.45.88-1.22.7a20.32,20.32,0,0,0,6-.08,9,9,0,0,1,4.24.09l-.48.08a17,17,0,0,0,3.52-.36c-.18-.91-.39-.77-.66-1.06a6.89,6.89,0,0,1-1-2.82,6.3,6.3,0,0,0,1.13-1.33c.37-.63.75-1.18,1.13-1.75l-.92-.66c0-.7.1-2.07.47-1.82-.63-2.58-.4.44-1-1.06.83-3.34-.39-9.22,1.07-10-.7-1.2-.54,3.2-1-.37,1.57-1-.27-4.13.45-7.18.81.93.38,3.83,1.1.77-1.37-1.84.3-6,0-8.53-1.09-.12-.46-5.6-.82-9.93.37.27.6-8.14,1-12.16l.19.11c-1.1-.77-.9-4.93-1.12-7.95.65.12.91.66,1.21,2.3v-2.84a8.68,8.68,0,0,1-.66-3.4l.82.71c0-3.78-1-7.61-.42-12.48-.77-.27-2.14,3.87-2.65-1.27.42-.19,1.13-.38,1.3,1a7.42,7.42,0,0,1-.17-2.46l.7,2.06c.3-2.22-.59-1.16-.52-2.93.59,0,.42-1.32.89-1.06a9.58,9.58,0,0,0,0,2.22,17,17,0,0,1,.91-5.21c-.34.18-.8,0-.88-1.46,0-.52,0-.75,0-1a1.93,1.93,0,0,1,.08-.45c.07-.2.17-.23.28-.23s.49.12.64-.32a3.21,3.21,0,0,1-.26-1.23,3.05,3.05,0,0,0-.61-1.54c0-.74.42-.23.65,0-.39-1.71-.11-5.34-1.05-6.91l-.06.19,0-.36h0a41.51,41.51,0,0,1-.28-6.19c.06-1.56.23-2.51.34-3.48a36.1,36.1,0,0,0,1.69,4.9l.16,1.33a23.14,23.14,0,0,1,1.32,2.79,6.77,6.77,0,0,0,1.41,2.37,9.34,9.34,0,0,1,.37,2,3.19,3.19,0,0,1-.09,1.46c.36.7.63,1,.9,1.64a13.32,13.32,0,0,1,.82,3c-.56-.78-.57-.49-.59-.42s0,.07-.35-1.09c.14.6.23,1.07.3,1.47l.09.54c0,.09,0,.12.07.27l.12.43a18,18,0,0,0,1.91,4c-1.18-1,.06,3,.88,4.61l-.38-2.67c.78,1.86,1.31,3.54,1.85,5.25l-1.26-.57a24.82,24.82,0,0,0,1.55,5l.5,1.14c.19.41.38.81.56,1.21.52,1.16,1,2.31,1.54,3.43,1,2.16,1.85,4,2.6,6a50.58,50.58,0,0,1,2.09,7.1,7.73,7.73,0,0,1,.56-.58c.69-2.08.12-1.22-.51-.24-.57-2-1.18-4.15-.59-3.83.23.7.46,1.47.68,2.29.9-1.36,1.87-2.5,2.8-3.66a20.66,20.66,0,0,0,2.11-2.94,24.5,24.5,0,0,0,3.07-7.2,10.59,10.59,0,0,1,1.65-4.65c-.61.42-1.74.55-.33-3,1.7-3.12,3.29-3.24,2.54-1.1-.36.77-.64,1.09-.73,1-.4,1.09-.94,2.5,0,1.42L311,111c1.12-1.42,3.27-5.81,3.28-4.52.9-2.56,0-1.29-1.06.41.62-1,1.13-1.84,1.59-2.68l.64-1.24.54-1.08a9.61,9.61,0,0,1,1.14-2c-.18-.07-.53-.31-.36-.65,1.63-2.28.59-2.68,2.05-5.95.31,0,.07,1.19,0,1.78s-.08.77.58-1.07c.21,0,0,.91-.22,1.89-.13.53-.45,1.79-.66,2.64.47-1.72.76-2,.7-1.44s-.38,1.94-.41,2.14l-.53,1.71a6.7,6.7,0,0,1,.41-1.18L319.75,96a6.42,6.42,0,0,1-.48,1.91c1.58-5,1.25-4,1.58-5,.57-1.86,1.17-3.81,2.12-6.42-.06.28,0,.24.09,0-.09.53,0,.63-.15,1.2a30.73,30.73,0,0,1-1.12,3.69c.52-2.13,0-.67-.58,1.2-.4,1.19-.39,1.17-.89,2.68a8.79,8.79,0,0,1-.5,1.28c.2-.53.14-.19-.15.78-.21.62-.37,1.05-.47,1.31-.45,1.4-.53,1.63-.43,1.39l.72-1.85c.66-1.72,1.48-3.72,1.28-2.62-.43,1-.88,2.14-1.19,2.93s-.47,1.26-.39,1.13a20.82,20.82,0,0,1,2-4.3c-.46,1.47-.39,1.55-.27,1.57s.32-.16.21.36l.46-1.58c.71-1,.42.27.38,1.57-.56.82-.15-.85-.48,0,.49-.12,0,1.48-.5,2.67-.25.63-.49,1.19-.65,1.66a2.62,2.62,0,0,0-.14,1.35c-.25.37-.53.56-.76.5s-.45-.07-.7.67c0,4.32-1.48,4.44-1.65,9,.92-1.16.78-1.41.95,1.82l.71-7.36.25,4.84c.38-2.19.33-4.7.67-6,.21,2.32.07,2.06.83,1.11-1.56,2.83-.38,6.06-1.67,9.41l-1.73-.4c-1.65,5.09-.65,9.43-2.22,16.13l.67-2.13c.54,1-.6,4.2-.69,6.44-.55-.3-1,1-1.51,1.92.46,0-.86,5,.2,5.76l-1.27,2.9c-1.23,5.42.62,6.52-.46,11.75-.37-1.69-1.18.63-1.05-3-.29,1.76-.66,3.32-.26,3.41-.54,1,0,5-.85,6.53.13.78.7,1.12.33,3.09-.16.19-.29-.06-.29-.06.29.06-.12,3.15.81,1.54-1.3,2.43-1.9,6-2.43,9.51-.13.89-.26,1.77-.39,2.63l-.21,1.31-.29,1.63a49.15,49.15,0,0,1-1.49,6.17,6,6,0,0,1,.86.21l8.48-.28c2.1-.08,4.15-.14,5.91-.16-.22.18,0,.3-.68.24,4.87.55,3-1.7,8.53-1.09,2.83,1-2.94.52-1.17.88.76,2,6.68-.26,10.41.87l-.91.12c2.85.66,6.95-.74,11.61-.6,0,0-.23.17,0,.29,3.18-1,9.21-1.32,13.69-1.6-1.4.77-2,.41-1.19,1.18,2-.11-.59-1.24,3.42-1.46a26.76,26.76,0,0,0,2.89.65,9.36,9.36,0,0,1,3,1l-5.13.05a3.5,3.5,0,0,0,1.54.41,17.23,17.23,0,0,0,2.28,0c1.56,0,3-.23,4.33-.3a17.59,17.59,0,0,1,0-1.77l.47.76c0-2.35-.14-4.12-.27-5.55a11.92,11.92,0,0,0-.21-1.53c-.08-.4-.15-.78-.23-1.16a25.92,25.92,0,0,1-.53-6.21l-.36.65c-1.16-3.41.66-2.86-.21-6.25l1.19-1c-.29-2.24-1.15-7.86-1.37-11.88.88,2.28,1.33,7,1.85,9.9,0-2.22-.09-7.56-.68-8.72a9.6,9.6,0,0,1,.23,2.91,33.65,33.65,0,0,1-1.37-10.75c2.29.79.58-11.55,2.36-14.77-.85-7.84.36-15.56.23-24.69-1.79,3.24-.05-2.67-1.89-2.11a10,10,0,0,1,0-3.13l1.1-6.45c.53-1.53.4,2,.81,1.83.15-4.66.78-2,1.27-5-.66.63-.94-1.62-.69-4.28l-.85,3.74c-1-6.51,1.54-5.62.58-12.19l.57,2.08c-.34-3.37,0-12.43-1.46-15.73.21-.59.72-1.38.85.1.22-8-1.57-17.91-.66-24.17l.45.61c-.13-1.5-.85-2.61-.4-4.49.19.09.45.6.48-.09a22.58,22.58,0,0,1-.53-6l.51,1.7c.59-7.85-1.23-12.05-1.54-18.64,1.32,0,1.75-6.16,2-9.24l.18.11c0-.65,0-1.28,0-1.91,0-1,0-2,0-2.94,0-1.92-.05-3.76-.09-5.51-3,.07-5.78.18-8.42.31-.79,0-1,.06-1.39.09l-1.08.11-2.16.21c-2.89.29-5.81.6-9,.79-2.55-.69-6.82-.85-11.51-.93l-7.16-.1c-1.2,0-2.37-.06-3.51-.1L328.24.93l-3-.11c-.24.44-.44.83-.64,1.22.58-1,.7-.61.57.23a15.89,15.89,0,0,1-.9,3.26c-.1.17-.2.36-.3.55l-.24.51c-.11.26-.22.54-.32.82l-.56,1.68c-.35,1-.69,1.75-1.18,1.35l.32-.63c-1.7.86-3.12,4.69-4.49,7.56l1.22,1.14c-2.79,3.3-4.88,8.33-6.74,13-.94,2.31-1.81,4.51-2.69,6.34A22.53,22.53,0,0,1,308,40.25a10.93,10.93,0,0,1-.68.94c-.12.14-.23.27-.35.39l-.09.09h-.15a2.62,2.62,0,0,1-.07,1.09c-.09.42-.2.89-.29,1.57l-.27-1.46a6.91,6.91,0,0,0-.6.77,3.84,3.84,0,0,0-.35-1.11,4.65,4.65,0,0,0,.43-.84c0-.11-.45.67-1.05.86a1,1,0,0,1-.91-.08,1.25,1.25,0,0,1-.39-.4,1.43,1.43,0,0,1-.16-.3,4.42,4.42,0,0,1-.18-.61l1-1.33c-1.54-6.59-2-13.51-4.62-19.77.21.07.61.18.91,1.23-.69-3.11-1.94-12.19-3.37-10.67.37-.12.31-1,0-2.18-.09-.38-.47-1.83-.81-3s-.74-2.5-1.12-3.71l-3.6.28-1.59.13-.72.07-.59.06a3.63,3.63,0,0,1,.86-.84l-.48.1-.23.05-.13,0-.48.18-.84.3c-.51.18-.95.33-1.42.45a23.64,23.64,0,0,1-4.2.54c-1-.11-.9-.67.46-.46-3.4-.44-2.65.79-6.77.35l1.53-.54c-3.5-.06-3.22.23-5.15.85-2.2.33-6.63-.21-7.15-1a6.87,6.87,0,0,1-4.45.86c-.28-.28.47-.46.85-.55a29.8,29.8,0,0,0-6.54.12l-.67.07-.87.07L250.92,3a29.26,29.26,0,0,1-3.6,0c-.08.4-.18.83-.3,1.26-.26-.1-.43.18-.57.64.1-.88.19-1.73.28-2.56l7,0a8.71,8.71,0,0,1,1.63.07c0-.77-3.76-.9-.77-2l-1.21.24L251,1,246,1.52c0,2-.09,3.84-.19,5.56l-.09,1.26-.08,1a12.42,12.42,0,0,1-.22,1.44,1.52,1.52,0,0,1-.32.46l0-.39a8,8,0,0,0-.12,2.31,27.82,27.82,0,0,0-.55,3c-.68.37-.8,4.25-1,6.11.85-.07.46,2.35,1.4.14-.1.29-.07-.36,0-1.6a5.3,5.3,0,0,0,0-.8l.06.13c.11-1.22.26-2.82.43-4.63a9.38,9.38,0,0,1-.22,5.1c.44,1,.88,2.12,1.08,2.74-1.44,2.43-2.59,7.27-3.39,7.88-.13,5.73-1.11,13.42.08,17.16,0,1.64-.65,1.81-1,2.39a17.74,17.74,0,0,0-.09-2.59c.06,3.28-.86,9.6.16,10.48-.93,4-.77-2.39-1.19,3.22l-.25-.79c-2.93,10.82.9,18.2-2.65,30.17.22-.83.33-1.25.54-1.4-2.48,13.81-2.12,28.77-5.16,42.34-.73,3.87-.08,4.37.21,6.8l-1,.75.61,4.19c.15,5.85-3.27,9.76-2.61,17.23l.7-.88c-.39,2.62-.52,8.36-1.17,7.85a2.2,2.2,0,0,1,.11,1.92l-.48,0,.12,6.53c-.87,5-1.79-1-2.65,6.31-.11,2.73.55,7.87,1,6.89.14-1.1.59-2.77,1.07-2.8l0,2.51c1.34.59,2.56,2.65,4.18-3.34l-.4-4.33.82-1.3-.33,3.58c.85-2,.42-3.3.19-4.78a3.11,3.11,0,0,0,.93-1.7l-.88-4.31c.59-.45.88,2,1.47-.78-.4-2-1.41,1.74-1.47-1.53.84-2,1.29-1.32,1-3.76.39-.29.57.23.62,1.2-.2-2.17.42-5.64-.2-6.81,1-2,.56-7.18,1.85-6.83a21.67,21.67,0,0,1-.48-5.8c1.19,3.72.87-7.29,2.45-6.17-1.13-2.78.39-9.58.1-14.33a2.35,2.35,0,0,1,.14,1.21,29.6,29.6,0,0,1,1.35-5c-1.13-.46-1-4.58-1.45-6.86,1.47-3.1,1.16,2.1,2.35,1.21-1,.06-.35-5.7-1.25-4.69,1-2.38.56-2.08,1.67-3.25-1.42-.58,0-2.32-.69-4.45,1.1-3.49,1.47-.77,1.44-4.74C243.2,100.14,243.34,103.68,243.34,103.68Zm7.38-93.36h0l-.16,1.92C250.61,11.85,250.65,11.29,250.72,10.32Zm1.74-3.23q-.61,0-1.44,0L251,7.5a.91.91,0,0,1-.47-1h0s0,0,0,0,0,.1.07.08C250.88,6.74,251.87,6.89,252.46,7.09ZM244,18.43c0-1.25.22-1.65.41-1.8,0,.58-.09,1.27-.13,2.17a1.29,1.29,0,0,0,.09.16A1.12,1.12,0,0,1,244,18.43Z"/><path class="cls-4" d="M244.83,20.77c0,.18,0,.28,0,.52.1-.25.19-.48.26-.72l-.21-.47Z"/><path class="cls-4" d="M281.81,88.68l0-.06s-.07,0-.12-.11A1,1,0,0,1,281.81,88.68Z"/><polygon class="cls-4" points="314.12 43.76 313.92 43.68 313.8 44.38 314.12 43.76"/><path class="cls-4" d="M278.92,128.12a1.17,1.17,0,0,0-.22.57A1.63,1.63,0,0,0,278.92,128.12Z"/><path class="cls-4" d="M278.73,146.83l-.3,2.65C278.6,148.33,278.68,147.5,278.73,146.83Z"/><path class="cls-4" d="M278.31,161.22a.85.85,0,0,0,.36.28v0Z"/><path class="cls-4" d="M329.31,82.65c0,.3-.08.59-.1.82C329.08,85.26,329.24,83.91,329.31,82.65Z"/><path class="cls-4" d="M304.82,115c.19-.71.37-1.41.62-2.13C304.84,113.93,304.41,114.77,304.82,115Z"/><path class="cls-4" d="M316.38,166.43h0l-.07.47Z"/><path class="cls-4" d="M306.87,110.05a12,12,0,0,0-1.43,2.83A17.46,17.46,0,0,0,306.87,110.05Z"/><path class="cls-4" d="M247,187.39l-.69,0c0,.06,0,.1-.08.14Z"/><path class="cls-4" d="M246.21,187.49l-.77.1A1.62,1.62,0,0,0,246.21,187.49Z"/><path class="cls-4" d="M243.82,187.8l1.62-.21A3.3,3.3,0,0,0,243.82,187.8Z"/><path class="cls-4" d="M266,187.78l.22-.31A.41.41,0,0,0,266,187.78Z"/><path class="cls-4" d="M271.82,187.69c-1.38-.07-3.46-.65-5.39-.46l-.18.24C267.16,187,270.51,188.2,271.82,187.69Z"/><path class="cls-4" d="M282,174.59l-.25,4.85c.33-.85.77-2,.85.24C283.58,173.57,281.88,180.94,282,174.59Z"/><path class="cls-4" d="M282.48,159.55c.15,2.6.47,0,.66.11C282.84,158,282.77,157.6,282.48,159.55Z"/><path class="cls-4" d="M286.74,94.87c-.14.38-.27.78-.39,1.19.17.33.22.23.24-.06A4.63,4.63,0,0,1,286.74,94.87Z"/><polygon class="cls-4" points="296.52 110.47 296.31 108.46 295.34 107.82 296.52 110.47"/><polygon class="cls-4" points="297.12 128.41 296.56 127.16 298.59 132.02 297.12 128.41"/><path class="cls-4" d="M305.35,187.53c.39-.42.77-.81,1.15-1.15C306.64,184.48,305.68,183.81,305.35,187.53Z"/><path class="cls-4" d="M373.36,177.71a7,7,0,0,0,.31-4.44C373.6,175,373.24,176.81,373.36,177.71Z"/><polygon class="cls-4" points="315.99 21.6 316.37 20.03 315.36 22.85 315.99 21.6"/><path d="M442.08,192c-30.42,0-49.25-25.56-49.25-49.25,0-23,14.17-57.12,53.19-57.12,40.89,0,41.36,29.25,41.36,29.55a5.88,5.88,0,0,1-1.73,4.17c-1,1-10.34,9.61-35.69,9.61-14.65,0-22.68-2.07-26-6.73a9.86,9.86,0,0,1-1.54-7c.39-3,3.94-7.58,3.94-3.94,0,1.92,1.63,2.77,3.27,3.19q5.12,1.31,10.32,2.16a61.35,61.35,0,0,0,10,.56c14,0,21.67-2.94,25.15-4.79-1.39-5.08-6.94-14.91-29.09-14.91-32.72,0-41.37,29.63-41.37,45.3,0,15.09,11.9,37.43,37.43,37.43,24.13,0,38.28-20.8,38.42-21a5.91,5.91,0,1,1,9.83,6.56C489.61,166.79,472.47,192,442.08,192Zm-8.18-73h0Zm0,0Z"/><circle cx="438.14" cy="107.29" r="3.94"/><circle cx="457.84" cy="107.29" r="3.94"/><path class="cls-5" d="M444.27,56.6a13.3,13.3,0,0,1-.44-3.07,1.14,1.14,0,0,1,.09-.55,1,1,0,0,1,.5-.4,4.65,4.65,0,0,1,4.4.48,6.5,6.5,0,0,1,2.54,3.74,1.41,1.41,0,0,1,0,1.07,1.29,1.29,0,0,1-.66.51,5.87,5.87,0,0,1-4-.28A6,6,0,0,1,444,56.61a2.32,2.32,0,0,1-.35-2.8,2.81,2.81,0,0,1,2.21-1,3.2,3.2,0,0,1,2.33.68,2.17,2.17,0,0,1,.13,2.9,2.34,2.34,0,0,1-2.91.43,1.82,1.82,0,0,1-.84-2.11,1.94,1.94,0,0,1,1.1-1,2.4,2.4,0,0,1,2.41.29,1.73,1.73,0,0,1,.31,2.29,1.36,1.36,0,0,1-2.15-.12.55.55,0,0,1-.07-.33c.06-.3.44-.36.74-.35a2.47,2.47,0,0,1,1.21.22.86.86,0,0,1,.46,1,1,1,0,0,1-.75.52,2.58,2.58,0,0,1-2.62-1,6.71,6.71,0,0,1,2.79-.54c14.74.36,29.72,5.31,43.82,9.63a3.41,3.41,0,0,1,2.9,3.68q2.33,16.94,3.14,34c.51,10.82.57,21.68,1.92,32.43"/><path class="cls-6" d="M500,133.44a15,15,0,0,0-3.72,1.15,5.18,5.18,0,0,0-2.64,2.75,5,5,0,0,0,1.91,5.36,10.14,10.14,0,0,0,5.72,1.75,7.73,7.73,0,0,0,3.93-.64,5.16,5.16,0,0,0,2.56-4.9,6.26,6.26,0,0,0-3.06-4.73,8.08,8.08,0,0,0-5.66-.89c-1,.19-2.09.74-2.16,1.74"/><path class="cls-6" d="M495,162.59a7.5,7.5,0,0,0,2.86.95l-1.13,7.81a1,1,0,0,0,0,.58c.15.31.57.38.92.4,2,.12,4,.13,6,0a5.82,5.82,0,0,1-.36-2.41,1.56,1.56,0,0,1,1.87.35,7.59,7.59,0,0,0,1.55,1.35,3.78,3.78,0,0,0,2.06.11l6-.81c-2-6.54-4.4-12.93-6.83-19.31l-2.55-6.72c-2,0-4.94-.47-6.78.18s-1.54,1.83-1.57,3.47A49.89,49.89,0,0,1,495,162.59Z"/></g></g></svg>